# MagicaVoxel @ Ephtracy

# group
o 

# material
mtllib Taş Zemin2.mtl
usemtl palette

# normals
vn -1 0 0
vn 1 0 0
vn 0 0 1
vn 0 0 -1
vn 0 -1 0
vn 0 1 0

# texcoords
vt 0.970703 0.5
vt 0.974609 0.5
vt 0.978516 0.5
vt 0.982422 0.5
vt 0.986328 0.5

# verts
v -2 0 2
v -2 0 -2
v -2 0.1 2
v -2 0.1 0.6
v -2 0.1 0.5
v -2 0.1 -0.8
v -2 0.1 -0.9
v -2 0.1 -2
v -2 0.2 2
v -2 0.2 0.6
v -2 0.2 0.5
v -2 0.2 -0.8
v -2 0.2 -0.9
v -2 0.2 -2
v -2 0.3 0.5
v -2 0.3 -0.8
v -0.8 0.2 2
v -0.8 0.2 1.5
v -0.8 0.3 2
v -0.8 0.3 1.5
v -0.7 0.1 -0.8
v -0.7 0.1 -0.9
v -0.7 0.1 -1.3
v -0.7 0.2 -0.8
v -0.7 0.2 -0.9
v -0.7 0.2 -1.3
v 2.38419e-007 0.2 -0.6
v 2.38419e-007 0.2 -0.7
v 2.38419e-007 0.3 -0.6
v 2.38419e-007 0.3 -0.7
v 0.6 0.2 -1.2
v 0.6 0.2 -1.8
v 0.6 0.3 -1.2
v 0.6 0.3 -1.8
v 0.9 0.1 0.5
v 0.9 0.1 0.3
v 0.9 0.2 0.5
v 0.9 0.2 0.3
v 1 0.2 1.7
v 1 0.2 1.5
v 1 0.3 1.7
v 1 0.3 1.5
v 1.5 0.1 1.2
v 1.5 0.1 1
v 1.5 0.2 1.2
v 1.5 0.2 1
v 1.6 0.1 -0.3
v 1.6 0.1 -0.9
v 1.6 0.2 -0.3
v 1.6 0.2 -0.9
v -1.1 0.1 -0.8
v -1.1 0.1 -0.9
v -1.1 0.1 -1.3
v -1.1 0.2 -0.8
v -1.1 0.2 -0.9
v -1.1 0.2 -1.3
v -0.3 0.2 -0.6
v -0.3 0.2 -0.7
v -0.3 0.3 -0.6
v -0.3 0.3 -0.7
v -0.2 0.2 -0.7
v -0.2 0.2 -0.8
v -0.2 0.3 -0.7
v -0.2 0.3 -0.8
v 0.1 0.2 0.5
v 0.1 0.2 -0.7
v 0.1 0.3 0.5
v 0.1 0.3 -0.7
v 0.7 0.1 0.5
v 0.7 0.1 0.3
v 0.7 0.2 1.7
v 0.7 0.2 1.5
v 0.7 0.2 0.5
v 0.7 0.2 0.3
v 0.7 0.3 1.7
v 0.7 0.3 1.5
v 1.1 0.2 -1.7
v 1.1 0.2 -1.8
v 1.1 0.3 -1.7
v 1.1 0.3 -1.8
v 1.3 0.1 1.2
v 1.3 0.1 1
v 1.3 0.1 -0.3
v 1.3 0.1 -0.9
v 1.3 0.2 1.2
v 1.3 0.2 1
v 1.3 0.2 -0.3
v 1.3 0.2 -0.9
v 1.3 0.2 -1.6
v 1.3 0.2 -1.7
v 1.3 0.3 -1.6
v 1.3 0.3 -1.7
v 1.4 0.2 -1.2
v 1.4 0.2 -1.6
v 1.4 0.3 -1.2
v 1.4 0.3 -1.6
v 2 0 2
v 2 0 -2
v 2 0.1 2
v 2 0.1 1.5
v 2 0.1 1.4
v 2 0.1 -2
v 2 0.2 2
v 2 0.2 1.5
v 2 0.2 1.4
v 2 0.2 -2
v 2 0.3 2
v 2 0.3 1.5
v -2 0 2
v -2 0.1 2
v -2 0.2 2
v -0.9 0.1 2
v -0.9 0.2 2
v -0.8 0.1 2
v -0.8 0.2 2
v -0.8 0.3 2
v 2 0 2
v 2 0.1 2
v 2 0.2 2
v 2 0.3 2
v 1.3 0.1 1
v 1.3 0.2 1
v 1.5 0.1 1
v 1.5 0.2 1
v -2 0.2 0.5
v -2 0.3 0.5
v 0.1 0.2 0.5
v 0.1 0.3 0.5
v 0.7 0.1 0.3
v 0.7 0.2 0.3
v 0.9 0.1 0.3
v 0.9 0.2 0.3
v -0.3 0.2 -0.7
v -0.3 0.3 -0.7
v -0.2 0.2 -0.7
v -0.2 0.3 -0.7
v 1.3 0.1 -0.9
v 1.3 0.2 -0.9
v 1.6 0.1 -0.9
v 1.6 0.2 -0.9
v 0.6 0.2 -1.2
v 0.6 0.3 -1.2
v 0.8 0.2 -1.2
v 0.8 0.3 -1.2
v 0.9 0.2 -1.2
v 0.9 0.3 -1.2
v 1.4 0.2 -1.2
v 1.4 0.3 -1.2
v -1.1 0.1 -1.3
v -1.1 0.2 -1.3
v -0.7 0.1 -1.3
v -0.7 0.2 -1.3
v 0.7 0.2 1.7
v 0.7 0.3 1.7
v 1 0.2 1.7
v 1 0.3 1.7
v -0.8 0.2 1.5
v -0.8 0.3 1.5
v 0.7 0.2 1.5
v 0.7 0.3 1.5
v 1 0.2 1.5
v 1 0.3 1.5
v 1.2 0.2 1.5
v 1.2 0.3 1.5
v 1.3 0.2 1.5
v 1.3 0.3 1.5
v 2 0.2 1.5
v 2 0.3 1.5
v 1.3 0.1 1.2
v 1.3 0.2 1.2
v 1.5 0.1 1.2
v 1.5 0.2 1.2
v 0.7 0.1 0.5
v 0.7 0.2 0.5
v 0.9 0.1 0.5
v 0.9 0.2 0.5
v 1.3 0.1 -0.3
v 1.3 0.2 -0.3
v 1.6 0.1 -0.3
v 1.6 0.2 -0.3
v -0.3 0.2 -0.6
v -0.3 0.3 -0.6
v 2.38419e-007 0.2 -0.6
v 2.38419e-007 0.3 -0.6
v 2.38419e-007 0.2 -0.7
v 2.38419e-007 0.3 -0.7
v 0.1 0.2 -0.7
v 0.1 0.3 -0.7
v -2 0.2 -0.8
v -2 0.3 -0.8
v -1.1 0.1 -0.8
v -1.1 0.2 -0.8
v -1 0.1 -0.8
v -1 0.2 -0.8
v -1 0.3 -0.8
v -0.9 0.1 -0.8
v -0.9 0.2 -0.8
v -0.9 0.3 -0.8
v -0.7 0.1 -0.8
v -0.7 0.2 -0.8
v -0.2 0.2 -0.8
v -0.2 0.3 -0.8
v 1.3 0.2 -1.6
v 1.3 0.3 -1.6
v 1.4 0.2 -1.6
v 1.4 0.3 -1.6
v 1.1 0.2 -1.7
v 1.1 0.3 -1.7
v 1.3 0.2 -1.7
v 1.3 0.3 -1.7
v 0.6 0.2 -1.8
v 0.6 0.3 -1.8
v 1.1 0.2 -1.8
v 1.1 0.3 -1.8
v -2 0 -2
v -2 0.1 -2
v -2 0.2 -2
v 2 0 -2
v 2 0.1 -2
v 2 0.2 -2
v -2 0 2
v 2 0 2
v 1.3 0 1.2
v 1.5 0 1.2
v 1.3 0 1
v 1.5 0 1
v 0.7 0 0.5
v 0.9 0 0.5
v 0.7 0 0.3
v 0.9 0 0.3
v 1.3 0 -0.3
v 1.6 0 -0.3
v -1.1 0 -0.8
v -0.7 0 -0.8
v 1.3 0 -0.9
v 1.6 0 -0.9
v -1.1 0 -1.3
v -0.7 0 -1.3
v -2 0 -2
v 2 0 -2
v 1.3 0.1 1.2
v 1.5 0.1 1.2
v 1.3 0.1 1
v 1.5 0.1 1
v 0.7 0.1 0.5
v 0.9 0.1 0.5
v 0.7 0.1 0.3
v 0.9 0.1 0.3
v 1.3 0.1 -0.3
v 1.6 0.1 -0.3
v -1.1 0.1 -0.8
v -1 0.1 -0.8
v -0.9 0.1 -0.8
v -0.7 0.1 -0.8
v -1.1 0.1 -0.9
v -0.7 0.1 -0.9
v 1.3 0.1 -0.9
v 1.6 0.1 -0.9
v -1.1 0.1 -1.3
v -0.7 0.1 -1.3
v -2 0.2 2
v -0.9 0.2 2
v -0.8 0.2 2
v 0.7 0.2 1.7
v 1 0.2 1.7
v -1.6 0.2 1.6
v -1.2 0.2 1.6
v -0.8 0.2 1.5
v 0.7 0.2 1.5
v 1 0.2 1.5
v 1.2 0.2 1.5
v 1.3 0.2 1.5
v 2 0.2 1.5
v -0.9 0.2 1.4
v 0.7 0.2 1.4
v 1 0.2 1.4
v 1.2 0.2 1.4
v 1.3 0.2 1.4
v 2 0.2 1.4
v -1.6 0.2 1.3
v -1.2 0.2 1.3
v 1.3 0.2 1.2
v 1.5 0.2 1.2
v 1.3 0.2 1
v 1.5 0.2 1
v 0.7 0.2 0.9
v 1 0.2 0.9
v 0.9 0.2 0.8
v 1 0.2 0.8
v 0.1 0.2 0.7
v 0.2 0.2 0.7
v 0.7 0.2 0.7
v 0.9 0.2 0.7
v 1 0.2 0.7
v -2 0.2 0.6
v 0.1 0.2 0.6
v -2 0.2 0.5
v 0.1 0.2 0.5
v 0.7 0.2 0.5
v 0.9 0.2 0.5
v 1.2 0.2 0.4
v 1.7 0.2 0.4
v 0.7 0.2 0.3
v 0.9 0.2 0.3
v 1.3 0.2 0.3
v 1.5 0.2 0.3
v 1.3 0.2 0.2
v 1.5 0.2 0.2
v 1.2 0.2 0.0999999
v 1.7 0.2 0.0999999
v 0.6 0.2 -0.1
v 0.9 0.2 -0.1
v 0.6 0.2 -0.3
v 0.9 0.2 -0.3
v 1.3 0.2 -0.3
v 1.6 0.2 -0.3
v -0.3 0.2 -0.6
v 2.38419e-007 0.2 -0.6
v -0.3 0.2 -0.7
v -0.2 0.2 -0.7
v 2.38419e-007 0.2 -0.7
v 0.1 0.2 -0.7
v 0.2 0.2 -0.7
v -2 0.2 -0.8
v -1.1 0.2 -0.8
v -0.7 0.2 -0.8
v -0.2 0.2 -0.8
v -2 0.2 -0.9
v -1.1 0.2 -0.9
v -0.7 0.2 -0.9
v -0.2 0.2 -0.9
v 1.3 0.2 -0.9
v 1.6 0.2 -0.9
v -0.2 0.2 -1.2
v -0.0999999 0.2 -1.2
v 0.2 0.2 -1.2
v 0.6 0.2 -1.2
v 0.8 0.2 -1.2
v 0.9 0.2 -1.2
v 1.4 0.2 -1.2
v -1.1 0.2 -1.3
v -0.7 0.2 -1.3
v -0.2 0.2 -1.3
v -0.0999999 0.2 -1.3
v 2.38419e-007 0.2 -1.4
v 0.1 0.2 -1.4
v -0.9 0.2 -1.5
v -0.6 0.2 -1.5
v 2.38419e-007 0.2 -1.5
v 0.1 0.2 -1.5
v -0.2 0.2 -1.6
v 0.2 0.2 -1.6
v 1.3 0.2 -1.6
v 1.4 0.2 -1.6
v -0.9 0.2 -1.7
v -0.6 0.2 -1.7
v 1.1 0.2 -1.7
v 1.3 0.2 -1.7
v 0.6 0.2 -1.8
v 1.1 0.2 -1.8
v -2 0.2 -2
v 2 0.2 -2
v -0.8 0.3 2
v 2 0.3 2
v -0.7 0.3 1.9
v 1.9 0.3 1.9
v 0.6 0.3 1.8
v 1.1 0.3 1.8
v 0.7 0.3 1.7
v 1 0.3 1.7
v -0.7 0.3 1.6
v 0.6 0.3 1.6
v 1.1 0.3 1.6
v 1.2 0.3 1.6
v 1.3 0.3 1.6
v 1.9 0.3 1.6
v -0.8 0.3 1.5
v 0.7 0.3 1.5
v 1 0.3 1.5
v 1.2 0.3 1.5
v 1.3 0.3 1.5
v 2 0.3 1.5
v -2 0.3 0.5
v 0.1 0.3 0.5
v -1.9 0.3 0.4
v 2.38419e-007 0.3 0.4
v -1.1 0.3 0.2
v -0.6 0.3 0.2
v -1.1 0.3 -0.1
v -0.6 0.3 -0.1
v -0.4 0.3 -0.5
v 2.38419e-007 0.3 -0.5
v -0.3 0.3 -0.6
v 2.38419e-007 0.3 -0.6
v -1.9 0.3 -0.7
v -1 0.3 -0.7
v -0.9 0.3 -0.7
v -0.4 0.3 -0.7
v -0.3 0.3 -0.7
v -0.2 0.3 -0.7
v 2.38419e-007 0.3 -0.7
v 0.1 0.3 -0.7
v -2 0.3 -0.8
v -1 0.3 -0.8
v -0.9 0.3 -0.8
v -0.2 0.3 -0.8
v 0.6 0.3 -1.2
v 0.8 0.3 -1.2
v 0.9 0.3 -1.2
v 1.4 0.3 -1.2
v 0.7 0.3 -1.3
v 0.8 0.3 -1.3
v 0.9 0.3 -1.3
v 1.3 0.3 -1.3
v 1.1 0.3 -1.6
v 1.3 0.3 -1.6
v 1.4 0.3 -1.6
v 0.7 0.3 -1.7
v 1.1 0.3 -1.7
v 1.3 0.3 -1.7
v 0.6 0.3 -1.8
v 1.1 0.3 -1.8

# faces
f 3/1/1 2/1/1 1/1/1
f 4/1/1 2/1/1 3/1/1
f 5/1/1 2/1/1 4/1/1
f 6/1/1 2/1/1 5/1/1
f 7/1/1 2/1/1 6/1/1
f 8/1/1 2/1/1 7/1/1
f 9/2/1 4/2/1 3/2/1
f 10/3/1 5/3/1 4/3/1
f 10/2/1 4/2/1 9/2/1
f 11/2/1 6/2/1 5/2/1
f 11/3/1 5/3/1 10/3/1
f 12/3/1 7/3/1 6/3/1
f 12/2/1 6/2/1 11/2/1
f 13/2/1 8/2/1 7/2/1
f 13/3/1 7/3/1 12/3/1
f 14/2/1 8/2/1 13/2/1
f 15/3/1 12/3/1 11/3/1
f 16/3/1 12/3/1 15/3/1
f 19/3/1 18/3/1 17/3/1
f 20/3/1 18/3/1 19/3/1
f 24/3/1 22/3/1 21/3/1
f 25/2/1 23/2/1 22/2/1
f 25/3/1 22/3/1 24/3/1
f 26/2/1 23/2/1 25/2/1
f 29/3/1 28/3/1 27/3/1
f 30/3/1 28/3/1 29/3/1
f 33/3/1 32/3/1 31/3/1
f 34/3/1 32/3/1 33/3/1
f 37/2/1 36/2/1 35/2/1
f 38/2/1 36/2/1 37/2/1
f 41/3/1 40/3/1 39/3/1
f 42/3/1 40/3/1 41/3/1
f 45/2/1 44/2/1 43/2/1
f 46/2/1 44/2/1 45/2/1
f 49/2/1 48/2/1 47/2/1
f 50/2/1 48/2/1 49/2/1
f 51/3/2 52/3/2 54/3/2
f 52/2/2 53/2/2 55/2/2
f 54/3/2 52/3/2 55/3/2
f 55/2/2 53/2/2 56/2/2
f 57/3/2 58/3/2 59/3/2
f 59/3/2 58/3/2 60/3/2
f 61/3/2 62/3/2 63/3/2
f 63/3/2 62/3/2 64/3/2
f 65/3/2 66/3/2 67/3/2
f 67/3/2 66/3/2 68/3/2
f 69/2/2 70/2/2 73/2/2
f 73/2/2 70/2/2 74/2/2
f 71/3/2 72/3/2 75/3/2
f 75/3/2 72/3/2 76/3/2
f 77/3/2 78/3/2 79/3/2
f 79/3/2 78/3/2 80/3/2
f 81/2/2 82/2/2 85/2/2
f 85/2/2 82/2/2 86/2/2
f 83/2/2 84/2/2 87/2/2
f 87/2/2 84/2/2 88/2/2
f 89/3/2 90/3/2 91/3/2
f 91/3/2 90/3/2 92/3/2
f 93/3/2 94/3/2 95/3/2
f 95/3/2 94/3/2 96/3/2
f 97/1/2 98/1/2 99/1/2
f 99/1/2 98/1/2 100/1/2
f 100/1/2 98/1/2 101/1/2
f 101/1/2 98/1/2 102/1/2
f 99/2/2 100/2/2 103/2/2
f 100/3/2 101/3/2 104/3/2
f 103/2/2 100/2/2 104/2/2
f 101/2/2 102/2/2 105/2/2
f 104/3/2 101/3/2 105/3/2
f 105/2/2 102/2/2 106/2/2
f 103/3/2 104/3/2 107/3/2
f 107/3/2 104/3/2 108/3/2
f 112/1/3 110/1/3 109/1/3
f 112/2/3 111/2/3 110/2/3
f 113/2/3 111/2/3 112/2/3
f 114/1/3 112/1/3 109/1/3
f 114/3/3 113/3/3 112/3/3
f 115/3/3 113/3/3 114/3/3
f 117/1/3 114/1/3 109/1/3
f 118/2/3 115/2/3 114/2/3
f 118/1/3 114/1/3 117/1/3
f 119/3/3 116/3/3 115/3/3
f 119/2/3 115/2/3 118/2/3
f 120/3/3 116/3/3 119/3/3
f 123/2/3 122/2/3 121/2/3
f 124/2/3 122/2/3 123/2/3
f 127/3/3 126/3/3 125/3/3
f 128/3/3 126/3/3 127/3/3
f 131/2/3 130/2/3 129/2/3
f 132/2/3 130/2/3 131/2/3
f 135/3/3 134/3/3 133/3/3
f 136/3/3 134/3/3 135/3/3
f 139/2/3 138/2/3 137/2/3
f 140/2/3 138/2/3 139/2/3
f 143/3/3 142/3/3 141/3/3
f 144/3/3 142/3/3 143/3/3
f 145/2/3 144/2/3 143/2/3
f 146/2/3 144/2/3 145/2/3
f 147/3/3 146/3/3 145/3/3
f 148/3/3 146/3/3 147/3/3
f 151/2/3 150/2/3 149/2/3
f 152/2/3 150/2/3 151/2/3
f 153/3/4 154/3/4 155/3/4
f 155/3/4 154/3/4 156/3/4
f 157/3/4 158/3/4 159/3/4
f 159/3/4 158/3/4 160/3/4
f 161/3/4 162/3/4 163/3/4
f 163/3/4 162/3/4 164/3/4
f 163/2/4 164/2/4 165/2/4
f 165/2/4 164/2/4 166/2/4
f 165/3/4 166/3/4 167/3/4
f 167/3/4 166/3/4 168/3/4
f 169/2/4 170/2/4 171/2/4
f 171/2/4 170/2/4 172/2/4
f 173/2/4 174/2/4 175/2/4
f 175/2/4 174/2/4 176/2/4
f 177/2/4 178/2/4 179/2/4
f 179/2/4 178/2/4 180/2/4
f 181/3/4 182/3/4 183/3/4
f 183/3/4 182/3/4 184/3/4
f 185/3/4 186/3/4 187/3/4
f 187/3/4 186/3/4 188/3/4
f 189/3/4 190/3/4 192/3/4
f 191/5/4 192/5/4 193/5/4
f 192/3/4 190/3/4 194/3/4
f 193/5/4 192/5/4 194/5/4
f 194/3/4 190/3/4 195/3/4
f 193/2/4 194/2/4 196/2/4
f 194/2/4 195/2/4 196/2/4
f 196/2/4 195/2/4 197/2/4
f 197/2/4 195/2/4 198/2/4
f 196/5/4 197/5/4 199/5/4
f 197/3/4 198/3/4 200/3/4
f 199/5/4 197/5/4 200/5/4
f 200/3/4 198/3/4 201/3/4
f 201/3/4 198/3/4 202/3/4
f 203/3/4 204/3/4 205/3/4
f 205/3/4 204/3/4 206/3/4
f 207/3/4 208/3/4 209/3/4
f 209/3/4 208/3/4 210/3/4
f 211/3/4 212/3/4 213/3/4
f 213/3/4 212/3/4 214/3/4
f 215/1/4 216/1/4 218/1/4
f 216/2/4 217/2/4 219/2/4
f 218/1/4 216/1/4 219/1/4
f 219/2/4 217/2/4 220/2/4
f 223/1/5 222/1/5 221/1/5
f 224/1/5 222/1/5 223/1/5
f 225/1/5 223/1/5 221/1/5
f 225/5/5 224/5/5 223/5/5
f 226/1/5 222/1/5 224/1/5
f 226/5/5 224/5/5 225/5/5
f 227/1/5 225/1/5 221/1/5
f 227/1/5 226/1/5 225/1/5
f 228/1/5 226/1/5 227/1/5
f 229/1/5 227/1/5 221/1/5
f 229/5/5 228/5/5 227/5/5
f 230/1/5 226/1/5 228/1/5
f 230/5/5 228/5/5 229/5/5
f 231/1/5 230/1/5 229/1/5
f 231/1/5 226/1/5 230/1/5
f 232/1/5 222/1/5 226/1/5
f 232/1/5 226/1/5 231/1/5
f 233/1/5 231/1/5 229/1/5
f 233/1/5 229/1/5 221/1/5
f 234/1/5 231/1/5 233/1/5
f 235/5/5 232/5/5 231/5/5
f 235/1/5 231/1/5 234/1/5
f 236/1/5 222/1/5 232/1/5
f 236/5/5 232/5/5 235/5/5
f 237/5/5 234/5/5 233/5/5
f 237/1/5 233/1/5 221/1/5
f 238/1/5 235/1/5 234/1/5
f 238/5/5 234/5/5 237/5/5
f 238/1/5 236/1/5 235/1/5
f 239/1/5 237/1/5 221/1/5
f 239/1/5 238/1/5 237/1/5
f 240/1/5 236/1/5 238/1/5
f 240/1/5 238/1/5 239/1/5
f 240/1/5 222/1/5 236/1/5
f 241/5/6 242/5/6 243/5/6
f 243/5/6 242/5/6 244/5/6
f 245/5/6 246/5/6 247/5/6
f 247/5/6 246/5/6 248/5/6
f 251/5/6 252/5/6 255/5/6
f 253/5/6 254/5/6 255/5/6
f 252/5/6 253/5/6 255/5/6
f 255/5/6 254/5/6 256/5/6
f 249/5/6 250/5/6 257/5/6
f 257/5/6 250/5/6 258/5/6
f 255/5/6 256/5/6 259/5/6
f 259/5/6 256/5/6 260/5/6
f 261/2/6 262/2/6 266/2/6
f 266/2/6 262/2/6 267/2/6
f 262/3/6 263/3/6 268/3/6
f 264/2/6 265/2/6 269/2/6
f 269/2/6 265/2/6 270/2/6
f 262/3/6 268/3/6 274/3/6
f 267/2/6 262/2/6 274/2/6
f 268/3/6 269/3/6 274/3/6
f 269/2/6 270/2/6 275/2/6
f 274/3/6 269/3/6 275/3/6
f 270/3/6 271/3/6 276/3/6
f 275/2/6 270/2/6 276/2/6
f 271/2/6 272/2/6 277/2/6
f 276/3/6 271/3/6 277/3/6
f 272/3/6 273/3/6 278/3/6
f 277/2/6 272/2/6 278/2/6
f 278/3/6 273/3/6 279/3/6
f 261/2/6 266/2/6 280/2/6
f 266/3/6 267/3/6 280/3/6
f 276/2/6 277/2/6 281/2/6
f 280/3/6 267/3/6 281/3/6
f 275/2/6 276/2/6 281/2/6
f 277/2/6 278/2/6 281/2/6
f 267/2/6 274/2/6 281/2/6
f 274/2/6 275/2/6 281/2/6
f 278/2/6 279/2/6 281/2/6
f 280/2/6 281/2/6 282/2/6
f 281/2/6 279/2/6 282/2/6
f 282/2/6 279/2/6 283/2/6
f 280/2/6 282/2/6 284/2/6
f 283/2/6 279/2/6 285/2/6
f 280/2/6 284/2/6 286/2/6
f 284/2/6 285/2/6 286/2/6
f 286/2/6 285/2/6 287/2/6
f 286/4/6 287/4/6 288/4/6
f 287/2/6 285/2/6 289/2/6
f 288/4/6 287/4/6 289/4/6
f 280/2/6 286/2/6 290/2/6
f 290/2/6 286/2/6 291/2/6
f 286/4/6 288/4/6 292/4/6
f 291/2/6 286/2/6 292/2/6
f 288/1/6 289/1/6 293/1/6
f 292/4/6 288/4/6 293/4/6
f 289/2/6 285/2/6 294/2/6
f 293/1/6 289/1/6 294/1/6
f 261/2/6 280/2/6 295/2/6
f 280/2/6 290/2/6 295/2/6
f 290/3/6 291/3/6 296/3/6
f 295/2/6 290/2/6 296/2/6
f 295/3/6 296/3/6 297/3/6
f 296/3/6 291/3/6 298/3/6
f 297/3/6 296/3/6 298/3/6
f 292/2/6 293/2/6 299/2/6
f 291/2/6 292/2/6 299/2/6
f 293/2/6 294/2/6 299/2/6
f 299/2/6 294/2/6 300/2/6
f 294/2/6 285/2/6 301/2/6
f 300/2/6 294/2/6 301/2/6
f 285/2/6 279/2/6 302/2/6
f 301/2/6 285/2/6 302/2/6
f 291/2/6 299/2/6 303/2/6
f 300/2/6 301/2/6 304/2/6
f 301/1/6 302/1/6 305/1/6
f 305/1/6 302/1/6 306/1/6
f 301/1/6 305/1/6 307/1/6
f 305/4/6 306/4/6 307/4/6
f 306/1/6 302/1/6 308/1/6
f 307/4/6 306/4/6 308/4/6
f 303/2/6 304/2/6 309/2/6
f 304/2/6 301/2/6 309/2/6
f 307/1/6 308/1/6 309/1/6
f 301/1/6 307/1/6 309/1/6
f 302/2/6 279/2/6 310/2/6
f 309/1/6 308/1/6 310/1/6
f 308/1/6 302/1/6 310/1/6
f 303/2/6 309/2/6 311/2/6
f 291/2/6 303/2/6 311/2/6
f 309/2/6 310/2/6 311/2/6
f 311/2/6 310/2/6 312/2/6
f 291/2/6 311/2/6 313/2/6
f 311/3/6 312/3/6 313/3/6
f 312/2/6 310/2/6 314/2/6
f 313/3/6 312/3/6 314/3/6
f 314/2/6 310/2/6 315/2/6
f 315/2/6 310/2/6 316/2/6
f 317/2/6 318/2/6 319/2/6
f 319/2/6 318/2/6 320/2/6
f 320/2/6 318/2/6 321/2/6
f 298/3/6 291/3/6 322/3/6
f 291/2/6 313/2/6 323/2/6
f 313/2/6 314/2/6 323/2/6
f 322/3/6 291/3/6 323/3/6
f 314/2/6 315/2/6 323/2/6
f 320/2/6 321/2/6 327/2/6
f 321/2/6 322/2/6 327/2/6
f 322/2/6 323/2/6 327/2/6
f 324/3/6 325/3/6 328/3/6
f 328/3/6 325/3/6 329/3/6
f 326/3/6 327/3/6 330/3/6
f 327/2/6 323/2/6 331/2/6
f 330/3/6 327/3/6 331/3/6
f 323/2/6 315/2/6 332/2/6
f 331/2/6 323/2/6 332/2/6
f 316/2/6 310/2/6 333/2/6
f 330/2/6 331/2/6 334/2/6
f 332/2/6 333/2/6 334/2/6
f 331/2/6 332/2/6 334/2/6
f 334/2/6 333/2/6 335/2/6
f 335/2/6 333/2/6 336/2/6
f 336/2/6 333/2/6 337/2/6
f 337/2/6 333/2/6 338/2/6
f 338/2/6 333/2/6 339/2/6
f 339/2/6 333/2/6 340/2/6
f 328/2/6 329/2/6 341/2/6
f 330/2/6 334/2/6 342/2/6
f 334/1/6 335/1/6 343/1/6
f 342/2/6 334/2/6 343/2/6
f 335/4/6 336/4/6 344/4/6
f 343/1/6 335/1/6 344/1/6
f 343/4/6 344/4/6 345/4/6
f 344/4/6 336/4/6 345/4/6
f 345/4/6 336/4/6 346/4/6
f 341/2/6 342/2/6 347/2/6
f 342/2/6 343/2/6 347/2/6
f 347/2/6 343/2/6 348/2/6
f 345/1/6 346/1/6 349/1/6
f 343/4/6 345/4/6 349/4/6
f 346/4/6 336/4/6 350/4/6
f 349/1/6 346/1/6 350/1/6
f 343/4/6 349/4/6 351/4/6
f 348/2/6 343/2/6 351/2/6
f 349/4/6 350/4/6 351/4/6
f 350/4/6 336/4/6 352/4/6
f 351/4/6 350/4/6 352/4/6
f 336/2/6 337/2/6 352/2/6
f 340/2/6 333/2/6 354/2/6
f 341/2/6 347/2/6 355/2/6
f 347/3/6 348/3/6 355/3/6
f 348/2/6 351/2/6 356/2/6
f 355/3/6 348/3/6 356/3/6
f 351/2/6 352/2/6 356/2/6
f 353/2/6 354/2/6 358/2/6
f 352/2/6 337/2/6 359/2/6
f 356/2/6 352/2/6 359/2/6
f 355/2/6 356/2/6 359/2/6
f 357/2/6 358/2/6 360/2/6
f 355/2/6 359/2/6 361/2/6
f 359/2/6 360/2/6 361/2/6
f 328/2/6 341/2/6 361/2/6
f 341/2/6 355/2/6 361/2/6
f 310/2/6 279/2/6 362/2/6
f 361/2/6 360/2/6 362/2/6
f 360/2/6 358/2/6 362/2/6
f 333/2/6 310/2/6 362/2/6
f 358/2/6 354/2/6 362/2/6
f 354/2/6 333/2/6 362/2/6
f 363/3/6 364/3/6 365/3/6
f 365/3/6 364/3/6 366/3/6
f 365/2/6 366/2/6 367/2/6
f 367/2/6 366/2/6 368/2/6
f 367/3/6 368/3/6 369/3/6
f 369/3/6 368/3/6 370/3/6
f 363/3/6 365/3/6 371/3/6
f 365/2/6 367/2/6 371/2/6
f 367/3/6 369/3/6 372/3/6
f 371/2/6 367/2/6 372/2/6
f 370/3/6 368/3/6 373/3/6
f 368/2/6 366/2/6 373/2/6
f 373/2/6 366/2/6 374/2/6
f 374/2/6 366/2/6 375/2/6
f 366/3/6 364/3/6 376/3/6
f 375/2/6 366/2/6 376/2/6
f 363/3/6 371/3/6 377/3/6
f 371/3/6 372/3/6 377/3/6
f 372/3/6 369/3/6 378/3/6
f 377/3/6 372/3/6 378/3/6
f 370/3/6 373/3/6 379/3/6
f 373/3/6 374/3/6 379/3/6
f 374/2/6 375/2/6 380/2/6
f 379/3/6 374/3/6 380/3/6
f 375/3/6 376/3/6 381/3/6
f 380/2/6 375/2/6 381/2/6
f 376/3/6 364/3/6 382/3/6
f 381/3/6 376/3/6 382/3/6
f 383/3/6 384/3/6 385/3/6
f 385/3/6 384/3/6 386/3/6
f 385/2/6 386/2/6 387/2/6
f 387/2/6 386/2/6 388/2/6
f 385/2/6 387/2/6 389/2/6
f 387/3/6 388/3/6 389/3/6
f 388/2/6 386/2/6 390/2/6
f 389/3/6 388/3/6 390/3/6
f 389/2/6 390/2/6 391/2/6
f 390/2/6 386/2/6 391/2/6
f 386/3/6 384/3/6 392/3/6
f 391/2/6 386/2/6 392/2/6
f 391/3/6 392/3/6 393/3/6
f 392/3/6 384/3/6 394/3/6
f 393/3/6 392/3/6 394/3/6
f 383/3/6 385/3/6 395/3/6
f 389/2/6 391/2/6 395/2/6
f 385/2/6 389/2/6 395/2/6
f 395/2/6 391/2/6 396/2/6
f 396/2/6 391/2/6 397/2/6
f 391/3/6 393/3/6 398/3/6
f 397/2/6 391/2/6 398/2/6
f 398/3/6 393/3/6 399/3/6
f 394/3/6 384/3/6 401/3/6
f 401/3/6 384/3/6 402/3/6
f 383/3/6 395/3/6 403/3/6
f 395/3/6 396/3/6 403/3/6
f 396/2/6 397/2/6 404/2/6
f 403/3/6 396/3/6 404/3/6
f 399/3/6 400/3/6 405/3/6
f 404/2/6 397/2/6 405/2/6
f 397/3/6 398/3/6 405/3/6
f 398/3/6 399/3/6 405/3/6
f 405/3/6 400/3/6 406/3/6
f 407/3/6 408/3/6 411/3/6
f 408/2/6 409/2/6 412/2/6
f 411/3/6 408/3/6 412/3/6
f 409/3/6 410/3/6 413/3/6
f 412/2/6 409/2/6 413/2/6
f 413/3/6 410/3/6 414/3/6
f 411/2/6 412/2/6 415/2/6
f 412/2/6 413/2/6 415/2/6
f 413/2/6 414/2/6 415/2/6
f 414/3/6 410/3/6 416/3/6
f 415/2/6 414/2/6 416/2/6
f 416/3/6 410/3/6 417/3/6
f 411/2/6 415/2/6 418/2/6
f 407/3/6 411/3/6 418/3/6
f 415/3/6 416/3/6 419/3/6
f 418/2/6 415/2/6 419/2/6
f 419/3/6 416/3/6 420/3/6
f 407/3/6 418/3/6 421/3/6
f 418/3/6 419/3/6 421/3/6
f 421/3/6 419/3/6 422/3/6
